HIERARCHY
ROOT joint_Root
{
	OFFSET 0.0 0.0 0.0
	CHANNELS 6 Xposition Yposition Zposition Zrotation Xrotation Yrotation 
	JOINT Hips
	{
		OFFSET 4.5925 91.4895 -427.239
		CHANNELS 6 Xposition Yposition Zposition Zrotation Xrotation Yrotation 
		JOINT Spine
		{
			OFFSET 15.7357 0.0 0.0
			CHANNELS 6 Xposition Yposition Zposition Zrotation Xrotation Yrotation 
			JOINT Chest
			{
				OFFSET 8.98455 -0.406207 0.0
				CHANNELS 6 Xposition Yposition Zposition Zrotation Xrotation Yrotation 
				JOINT Neck
				{
					OFFSET 16.3773 0.0 0.0
					CHANNELS 6 Xposition Yposition Zposition Zrotation Xrotation Yrotation 
					JOINT Head
					{
						OFFSET 6.45672 0.0 0.0
						CHANNELS 6 Xposition Yposition Zposition Zrotation Xrotation Yrotation 
						End Site
						{
							OFFSET 0.0 0.0 0.0
						}
					}
				}
				JOINT Shoulder_L
				{
					OFFSET 12.9942 -0.242716 4.98039
					CHANNELS 6 Xposition Yposition Zposition Zrotation Xrotation Yrotation 
					JOINT UpperArm_L
					{
						OFFSET 5.34809 0.0 0.0
						CHANNELS 6 Xposition Yposition Zposition Zrotation Xrotation Yrotation 
						JOINT LowerArm_L
						{
							OFFSET 24.3286 1.87007e-05 0.0
							CHANNELS 6 Xposition Yposition Zposition Zrotation Xrotation Yrotation 
							JOINT Hand_L
							{
								OFFSET 22.2916 0.0 0.0
								CHANNELS 6 Xposition Yposition Zposition Zrotation Xrotation Yrotation 
								End Site
								{
									OFFSET 0.0 0.0 0.0
								}
							}
						}
					}
				}
				JOINT Shoulder_R
				{
					OFFSET 12.9945 -0.242716 -4.98039
					CHANNELS 6 Xposition Yposition Zposition Zrotation Xrotation Yrotation 
					JOINT UpperArm_R
					{
						OFFSET -5.34813 0.0 0.0
						CHANNELS 6 Xposition Yposition Zposition Zrotation Xrotation Yrotation 
						JOINT LowerArm_R
						{
							OFFSET -24.3289 0.000322201 0.0
							CHANNELS 6 Xposition Yposition Zposition Zrotation Xrotation Yrotation 
							JOINT Hand_R
							{
								OFFSET -22.2915 -0.000108084 0.0
								CHANNELS 6 Xposition Yposition Zposition Zrotation Xrotation Yrotation 
								End Site
								{
									OFFSET 0.0 0.0 0.0
								}
							}
						}
					}
				}
			}
		}
		JOINT UpperLeg_L
		{
			OFFSET -2.19248 -6.46944 0.0
			CHANNELS 6 Xposition Yposition Zposition Zrotation Xrotation Yrotation 
			JOINT LowerLeg_L
			{
				OFFSET 39.0811 0.0 -1.23785e-05
				CHANNELS 6 Xposition Yposition Zposition Zrotation Xrotation Yrotation 
				JOINT Foot_L
				{
					OFFSET 40.9854 0.0 -1.26872e-05
					CHANNELS 6 Xposition Yposition Zposition Zrotation Xrotation Yrotation 
					JOINT Toes_L
					{
						OFFSET 11.7543 0.0 0.0
						CHANNELS 6 Xposition Yposition Zposition Zrotation Xrotation Yrotation 
						End Site
						{
							OFFSET 0.0 0.0 0.0
						}
					}
				}
			}
		}
		JOINT UpperLeg_R
		{
			OFFSET -2.19251 6.46944 0.0
			CHANNELS 6 Xposition Yposition Zposition Zrotation Xrotation Yrotation 
			JOINT LowerLeg_R
			{
				OFFSET -39.0811 -0.00228153 -0.0401928
				CHANNELS 6 Xposition Yposition Zposition Zrotation Xrotation Yrotation 
				JOINT Foot_R
				{
					OFFSET -40.9854 0.0 0.0
					CHANNELS 6 Xposition Yposition Zposition Zrotation Xrotation Yrotation 
					JOINT Toes_R
					{
						OFFSET -11.7543 0.0 0.0
						CHANNELS 6 Xposition Yposition Zposition Zrotation Xrotation Yrotation 
						End Site
						{
							OFFSET 0.0 0.0 0.0
						}
					}
				}
			}
		}
	}
}
MOTION
Frames:	4
Frame Time:	0.0333333
0.000000 0.000000 0.000000 0.000000 0.000000 -0.000000 -0.283811 91.303400 0.742186 89.209200 -6.340240 12.628600 15.735700 0.000005 -0.000001 86.297100 82.844100 -86.846700 8.984550 -0.406207 -0.000000 6.512340 -0.915467 -1.045850 16.377300 -0.000001 -0.000001 37.357600 -3.514180 -1.246780 6.456720 -0.000001 -0.000000 18.853800 -2.241580 3.554630 12.994200 -0.242716 4.980390 -86.462900 -8.065430 -66.223700 5.348090 -0.000007 -0.000001 -70.181900 -50.516600 -95.186300 24.328600 0.000019 0.000005 17.909200 9.182460 -63.720100 22.291600 -0.000001 0.000005 33.128100 5.324770 -0.633600 12.994500 -0.242716 -4.980390 91.585600 -5.092330 -72.679200 -5.348130 -0.000001 -0.000004 -54.841900 -48.229400 -84.452900 -24.328900 0.000322 -0.000009 3.815990 2.146980 -60.687300 -22.291500 -0.000108 -0.000004 33.623900 5.563980 -9.384440 -2.192480 -6.469440 -0.000000 -172.297000 -17.922900 6.765210 39.081100 -0.000007 -0.000012 -0.155976 0.308119 26.849700 40.985400 -0.000006 -0.000013 1.128530 7.819120 -70.105800 11.754300 -0.000000 0.000003 -0.000189 -0.001767 -16.644300 -2.192510 6.469440 -0.000001 169.848000 25.292300 -171.695000 -39.081100 -0.002282 -0.040193 -0.187808 0.396966 25.708600 -40.985400 0.000008 0.000006 3.881870 21.401300 -69.919300 -11.754300 -0.000006 -0.000006 -0.001397 -0.020895 -17.422800
0.000000 0.000000 0.000000 0.000000 0.000000 -0.000000 -0.465603 91.294900 0.888609 89.173500 -6.179370 12.650900 15.735700 0.000005 -0.000001 86.110500 82.850700 -86.633400 8.984550 -0.406207 -0.000000 6.496130 -0.961175 -0.990222 16.377300 -0.000001 -0.000001 37.327700 -3.601360 -1.189930 6.456720 -0.000001 -0.000000 18.809700 -2.381670 3.454600 12.994200 -0.242716 4.980390 -86.483200 -8.034130 -66.263900 5.348090 -0.000007 -0.000001 -70.064300 -50.559100 -95.140900 24.328600 0.000019 0.000005 17.921600 9.141180 -63.838200 22.291600 -0.000001 0.000005 33.081100 5.323760 -0.604468 12.994500 -0.242716 -4.980390 91.606400 -5.135240 -72.603300 -5.348130 -0.000001 -0.000004 -54.767200 -48.272700 -84.407500 -24.328900 0.000322 -0.000009 3.771450 2.128370 -60.612100 -22.291500 -0.000108 -0.000004 33.811500 5.563020 -9.336430 -2.192480 -6.469440 -0.000000 -172.130000 -17.764000 6.900600 39.081100 -0.000007 -0.000012 -0.158562 0.313718 26.813500 40.985400 -0.000006 -0.000013 1.002050 7.888020 -70.152200 11.754300 -0.000000 0.000003 -0.000185 -0.001731 -16.643000 -2.192510 6.469440 -0.000001 169.830000 25.562300 -171.418000 -39.081100 -0.002282 -0.040193 -0.190790 0.404690 25.623900 -40.985400 0.000008 0.000006 3.997110 21.444700 -70.065200 -11.754300 -0.000006 -0.000006 -0.001485 -0.022071 -17.470600
0.000000 0.000000 0.000000 0.000000 0.000000 -0.000000 -0.638132 91.276700 1.036070 89.180300 -5.976000 12.708400 15.735700 0.000005 -0.000001 85.940400 82.849200 -86.453700 8.984550 -0.406207 -0.000000 6.496100 -1.003700 -0.968565 16.377300 -0.000001 -0.000001 37.275000 -3.658720 -1.138870 6.456720 -0.000001 -0.000000 18.757000 -2.434170 3.411040 12.994200 -0.242716 4.980390 -86.468200 -8.043650 -66.198200 5.348090 -0.000007 -0.000001 -70.124400 -50.400100 -95.202500 24.328600 0.000019 0.000005 18.102500 9.187750 -63.967200 22.291600 -0.000001 0.000005 33.092400 5.325750 -0.661999 12.994500 -0.242716 -4.980390 91.611100 -5.132120 -72.544700 -5.348130 -0.000001 -0.000004 -54.691400 -48.359000 -84.358700 -24.328900 0.000322 -0.000009 3.797170 2.142380 -60.618500 -22.291500 -0.000108 -0.000004 33.783100 5.562760 -9.323580 -2.192480 -6.469440 -0.000000 -171.976000 -17.644800 7.079230 39.081100 -0.000007 -0.000012 -0.164532 0.325877 26.789000 40.985400 -0.000006 -0.000013 0.898185 8.034350 -70.219200 11.754300 -0.000000 0.000003 -0.000183 -0.001717 -16.642500 -2.192510 6.469440 -0.000001 169.782000 25.718600 -171.148000 -39.081100 -0.002282 -0.040193 -0.193633 0.410909 25.608100 -40.985400 0.000008 0.000006 4.079140 21.368200 -70.245400 -11.754300 -0.000006 -0.000006 -0.001484 -0.022064 -17.470300
0.000000 0.000000 0.000000 0.000000 0.000000 -0.000000 -0.788827 91.263000 1.175910 89.233500 -5.792450 12.732200 15.735700 0.000005 -0.000001 85.821500 82.857600 -86.327300 8.984550 -0.406207 -0.000000 6.477300 -1.032030 -0.952103 16.377300 -0.000001 -0.000001 37.264400 -3.670300 -1.153600 6.456720 -0.000001 -0.000000 18.669100 -2.439250 3.425520 12.994200 -0.242716 4.980390 -86.488100 -8.002920 -66.211700 5.348090 -0.000007 -0.000001 -70.137600 -50.373200 -95.225200 24.328600 0.000019 0.000005 18.143800 9.169460 -64.066800 22.291600 -0.000001 0.000005 33.047300 5.323860 -0.607257 12.994500 -0.242716 -4.980390 91.623300 -5.159670 -72.508600 -5.348130 -0.000001 -0.000004 -54.572100 -48.473200 -84.261000 -24.328900 0.000322 -0.000009 3.737360 2.096150 -60.762500 -22.291500 -0.000108 -0.000004 33.804600 5.561380 -9.255490 -2.192480 -6.469440 -0.000000 -171.909000 -17.546000 7.201490 39.081100 -0.000007 -0.000012 -0.166589 0.330702 26.736600 40.985400 -0.000006 -0.000013 0.804792 8.144940 -70.247200 11.754300 -0.000000 0.000003 -0.000179 -0.001689 -16.641500 -2.192510 6.469440 -0.000001 169.695000 25.838500 -170.943000 -39.081100 -0.002282 -0.040193 -0.199991 0.424315 25.600800 -40.985400 0.000008 0.000006 4.159430 21.351300 -70.416800 -11.754300 -0.000006 -0.000006 -0.001480 -0.022010 -17.468100
